<?xml version="1.0" standalone="no"?>
<svg xmlns="http://www.w3.org/2000/svg" viewBox="0 0 128 70" width="128" height="70"><g fill="#12a078" color="#12a078" transform="translate(46.328 0) scale(0.35) "><svg width="100.0" height="100.0" x="0.0" y="0.0" viewBox="0 0 100 100"><path d="M50.001,11.333c-21.32,0-38.666,17.346-38.666,38.667s17.346,38.667,38.666,38.667c21.321,0,38.667-17.346,38.667-38.667  S71.322,11.333,50.001,11.333z M50.001,84.667c-19.115,0-34.666-15.551-34.666-34.667s15.551-34.667,34.666-34.667  S84.668,30.885,84.668,50S69.116,84.667,50.001,84.667z"></path><path d="M75.934,45.511c-0.138-0.057-3.413-1.393-7.768-1.393c-3.713,0-7.053,0.959-9.927,2.852  c-2.024,1.333-3.408,3.374-3.896,5.748c-0.444,2.154-0.094,4.345,0.969,6.245c-0.917,1.052-1.768,2.249-2.432,3.61  c-0.375-1.349-0.97-2.873-1.887-4.442c3.666-4.677,3.598-11.459-0.481-16.061c-6.857-7.735-17.051-8.57-21.115-8.57  c-1.463,0-2.358,0.1-2.396,0.104c-0.413,0.047-0.753,0.344-0.855,0.747c-0.146,0.573-3.476,14.157,5.58,24.373  c2.381,2.686,5.806,4.226,9.397,4.226c3.067,0,6.023-1.122,8.321-3.159c0.057-0.051,0.106-0.107,0.162-0.159  c2.185,4.019,1.93,7.51,1.906,7.77c0,0.002,0,0.003-0.001,0.005c-0.051,0.549,0.353,1.037,0.901,1.089  c0.032,0.003,0.064,0.004,0.096,0.004c0.51,0,0.944-0.387,0.994-0.904c0,0,0-0.001,0.001-0.002c0.259-2.765,1.491-5.058,3.004-6.902  c2.153,2.579,4.55,3.163,6.273,3.163c2.536,0,4.646-1.209,5.437-1.729c7.938-5.227,8.32-15.238,8.333-15.662  C76.562,46.049,76.317,45.67,75.934,45.511z M41.185,49.448c-0.498-0.242-1.096-0.035-1.337,0.462s-0.035,1.095,0.462,1.337  c3.976,1.935,6.546,4.317,8.211,6.652c-0.134,0.132-0.26,0.268-0.402,0.394c-1.933,1.713-4.417,2.656-6.995,2.656  c-3.02,0-5.899-1.295-7.901-3.552c-7.232-8.16-5.81-19.032-5.282-21.859c0.365-0.02,0.859-0.038,1.457-0.038  c3.794,0,13.301,0.77,19.619,7.897c3.273,3.694,3.469,9.057,0.799,12.957C47.981,53.89,45.256,51.429,41.185,49.448z M67.118,60.455  c-0.639,0.421-2.341,1.399-4.337,1.399c-1.876,0-3.523-0.894-4.91-2.655c2.724-2.643,5.71-3.985,5.763-4.009  c0.505-0.222,0.735-0.812,0.515-1.317c-0.222-0.504-0.805-0.736-1.316-0.516c-0.228,0.099-3.2,1.435-6.049,4.086  c-0.609-1.348-0.786-2.846-0.482-4.323c0.382-1.85,1.46-3.441,3.038-4.48c2.542-1.674,5.512-2.522,8.827-2.522  c2.845,0,5.217,0.641,6.327,1.001C74.25,49.399,73.028,56.564,67.118,60.455z"></path></svg></g><line x1="47.37711693548387" y1="41" x2="80.27711693548386" y2="41" stroke="#000000" stroke-linecap="round"></line><path fill="#000000" fill-rule="nonzero" d="M4.83 22.29L4.83 22.29Q3.68 22.29 2.77 21.69Q1.85 21.09 1.22 20.06Q0.59 19.03 0.29 17.67Q0 16.31 0.07 14.79L0.07 14.79Q0.16 13.17 0.56 11.45Q0.96 9.73 1.64 8.09Q2.32 6.45 3.22 4.97Q4.13 3.49 5.21 2.39Q6.30 1.29 7.55 0.64Q8.79 0 10.15 0L10.15 0Q11.04 0 11.65 0.45Q12.26 0.89 12.60 1.61Q12.94 2.32 13.03 3.21Q13.13 4.10 13.02 4.98Q12.91 5.86 12.62 6.67Q12.33 7.48 11.91 7.99L11.91 7.99Q11.37 8.67 10.93 8.71Q10.50 8.74 10.10 8.46L10.10 8.46Q9.94 8.32 9.77 8.13L9.77 8.13Q9.61 7.97 9.42 7.72Q9.23 7.48 9.02 7.10L9.02 7.10Q9.47 6.94 9.84 6.55Q10.22 6.16 10.49 5.67Q10.76 5.18 10.91 4.63Q11.06 4.08 11.09 3.54L11.09 3.54Q11.11 3.12 11.06 2.71Q11.02 2.30 10.88 1.98Q10.73 1.66 10.49 1.46Q10.24 1.27 9.87 1.27L9.87 1.27Q8.93 1.27 8.04 1.98Q7.15 2.70 6.36 3.88Q5.58 5.06 4.91 6.59Q4.24 8.11 3.75 9.73Q3.26 11.34 2.95 12.91Q2.65 14.48 2.58 15.77L2.58 15.77Q2.48 17.39 2.70 18.40Q2.91 19.41 3.27 19.98Q3.63 20.55 4.05 20.75Q4.48 20.95 4.83 20.95L4.83 20.95Q5.48 20.95 6.30 20.34Q7.13 19.73 7.88 18.69Q8.63 17.65 9.22 16.29Q9.82 14.93 10.08 13.43L10.08 13.43Q9.49 13.43 8.89 13.44Q8.30 13.45 7.76 13.48Q7.22 13.50 6.80 13.54Q6.38 13.57 6.14 13.62L6.14 13.62Q5.98 13.55 5.92 13.45Q5.86 13.36 5.81 13.24L5.81 13.24Q5.77 13.15 5.77 13.01L5.77 13.01Q5.77 12.87 5.81 12.75L5.81 12.75Q5.86 12.63 5.93 12.50Q6 12.38 6.12 12.23L6.12 12.23Q6.87 12.09 7.59 12Q8.32 11.91 9.11 11.85Q9.89 11.79 10.79 11.75Q11.70 11.72 12.82 11.70L12.82 11.70Q13.29 11.67 13.39 11.81Q13.50 11.95 13.31 12.52L13.31 12.52Q13.17 12.96 12.95 13.24Q12.73 13.52 12.21 13.48L12.21 13.48Q12.05 13.48 11.95 13.45L11.95 13.45Q11.74 14.84 11.06 16.38Q10.38 17.93 9.40 19.24Q8.41 20.55 7.23 21.42Q6.05 22.29 4.83 22.29ZM13.50 17.60L13.50 17.60Q13.34 17.86 13.14 17.94Q12.94 18.02 12.79 17.96Q12.63 17.91 12.59 17.72Q12.54 17.53 12.68 17.25L12.68 17.25Q12.75 17.11 13.00 16.62Q13.24 16.13 13.58 15.43Q13.92 14.74 14.32 13.93Q14.72 13.13 15.08 12.40Q15.45 11.67 15.75 11.10Q16.05 10.52 16.20 10.27L16.20 10.27Q15.94 10.03 15.84 9.93Q15.75 9.82 15.70 9.47L15.70 9.47Q15.66 9.16 15.84 8.67Q16.03 8.18 16.34 7.72Q16.64 7.27 17.02 6.94Q17.39 6.61 17.74 6.61L17.74 6.61Q18.40 6.61 18.67 7.03Q18.94 7.45 18.98 7.90L18.98 7.90Q19.03 8.20 18.94 8.67Q18.84 9.14 18.59 9.52L18.59 9.52Q18.66 9.56 18.77 9.62Q18.89 9.68 19.15 9.68L19.15 9.68Q19.52 9.68 19.68 9.63Q19.83 9.59 20.16 9.59L20.16 9.59Q20.55 9.59 20.81 9.79Q21.07 9.98 21.23 10.28Q21.40 10.57 21.48 10.91Q21.56 11.25 21.59 11.53L21.59 11.53Q21.66 12.12 21.28 12.75Q20.91 13.38 20.37 14.13L20.37 14.13Q20.04 14.60 19.71 15.19Q19.38 15.77 19.43 16.24L19.43 16.24Q19.48 16.55 19.59 16.73Q19.71 16.92 20.25 16.92L20.25 16.92Q20.65 16.92 21.13 16.63Q21.61 16.34 22.11 15.88Q22.62 15.42 23.11 14.87Q23.60 14.32 24.02 13.79Q24.45 13.27 24.74 12.84Q25.03 12.42 25.17 12.23L25.17 12.23Q25.29 12.05 25.48 11.98Q25.66 11.91 25.80 11.98Q25.95 12.05 25.98 12.26Q26.02 12.47 25.80 12.82L25.80 12.82Q25.66 13.05 25.32 13.57Q24.98 14.09 24.50 14.72Q24.02 15.35 23.44 16.02Q22.85 16.69 22.21 17.24Q21.56 17.79 20.92 18.14Q20.27 18.49 19.69 18.49L19.69 18.49Q19.08 18.49 18.68 18.26Q18.28 18.02 18.04 17.68Q17.79 17.34 17.68 16.93Q17.58 16.52 17.60 16.17L17.60 16.17Q17.63 15.89 17.75 15.57Q17.88 15.26 18.06 14.92Q18.23 14.58 18.43 14.24Q18.63 13.90 18.80 13.57L18.80 13.57Q19.20 12.89 19.44 12.41Q19.69 11.93 19.69 11.60L19.69 11.60Q19.69 11.39 19.59 11.23Q19.50 11.06 19.29 11.06L19.29 11.06Q19.15 11.06 19.09 11.07Q19.03 11.09 18.97 11.09Q18.91 11.09 18.81 11.10Q18.70 11.11 18.49 11.11L18.49 11.11Q18.19 11.11 17.98 11.02Q17.77 10.92 17.58 10.88L17.58 10.88Q17.48 11.04 17.16 11.58Q16.83 12.12 16.39 12.84Q15.96 13.57 15.48 14.37Q15 15.16 14.58 15.86Q14.16 16.55 13.86 17.03Q13.57 17.51 13.50 17.60ZM34.76 12.84L34.76 12.84Q34.05 13.88 33.16 14.85Q32.27 15.82 31.28 16.58Q30.28 17.34 29.24 17.81Q28.20 18.28 27.21 18.28L27.21 18.28Q26.70 18.28 26.10 18.04Q25.50 17.79 25.01 17.27Q24.52 16.76 24.22 15.94Q23.93 15.12 24.05 13.95L24.05 13.95Q24.14 12.98 24.64 11.92Q25.15 10.85 25.89 9.96Q26.63 9.07 27.55 8.48Q28.48 7.90 29.41 7.90L29.41 7.90Q30.30 7.90 30.70 8.34Q31.10 8.79 31.05 9.45L31.05 9.45Q30.98 10.17 30.64 10.78Q30.30 11.39 29.84 11.88Q29.37 12.38 28.84 12.77Q28.31 13.17 27.84 13.50L27.84 13.50Q27.33 13.85 26.86 14.17Q26.39 14.48 26.04 14.74L26.04 14.74Q26.06 15.33 26.25 15.73Q26.44 16.13 26.72 16.37Q27 16.62 27.36 16.72Q27.73 16.83 28.10 16.83L28.10 16.83Q28.90 16.83 29.77 16.32Q30.63 15.82 31.46 15.11Q32.30 14.39 33.01 13.62Q33.73 12.84 34.20 12.28L34.20 12.28Q34.36 12.09 34.54 12.06Q34.71 12.02 34.82 12.11Q34.92 12.19 34.92 12.39Q34.92 12.59 34.76 12.84ZM28.76 9.23L28.76 9.23Q28.48 9.23 28.09 9.52Q27.70 9.80 27.33 10.32Q26.95 10.85 26.63 11.61Q26.30 12.38 26.13 13.36L26.13 13.36Q26.41 13.15 26.74 12.93Q27.07 12.70 27.40 12.45L27.40 12.45Q28.41 11.67 28.80 11.09Q29.20 10.50 29.25 10.08L29.25 10.08Q29.30 9.63 29.16 9.43Q29.02 9.23 28.76 9.23ZM43.69 12.84L43.69 12.84Q42.98 13.88 42.09 14.85Q41.20 15.82 40.21 16.58Q39.21 17.34 38.17 17.81Q37.13 18.28 36.14 18.28L36.14 18.28Q35.63 18.28 35.03 18.04Q34.43 17.79 33.94 17.27Q33.45 16.76 33.15 15.94Q32.86 15.12 32.98 13.95L32.98 13.95Q33.07 12.98 33.57 11.92Q34.08 10.85 34.82 9.96Q35.55 9.07 36.48 8.48Q37.41 7.90 38.34 7.90L38.34 7.90Q39.23 7.90 39.63 8.34Q40.03 8.79 39.98 9.45L39.98 9.45Q39.91 10.17 39.57 10.78Q39.23 11.39 38.77 11.88Q38.30 12.38 37.77 12.77Q37.24 13.17 36.77 13.50L36.77 13.50Q36.26 13.85 35.79 14.17Q35.32 14.48 34.97 14.74L34.97 14.74Q34.99 15.33 35.18 15.73Q35.37 16.13 35.65 16.37Q35.93 16.62 36.29 16.72Q36.66 16.83 37.03 16.83L37.03 16.83Q37.83 16.83 38.70 16.32Q39.56 15.82 40.39 15.11Q41.23 14.39 41.94 13.62Q42.66 12.84 43.13 12.28L43.13 12.28Q43.29 12.09 43.46 12.06Q43.64 12.02 43.75 12.11Q43.85 12.19 43.85 12.39Q43.85 12.59 43.69 12.84ZM37.69 9.23L37.69 9.23Q37.41 9.23 37.02 9.52Q36.63 9.80 36.26 10.32Q35.88 10.85 35.55 11.61Q35.23 12.38 35.06 13.36L35.06 13.36Q35.34 13.15 35.67 12.93Q36 12.70 36.33 12.45L36.33 12.45Q37.34 11.67 37.73 11.09Q38.13 10.50 38.18 10.08L38.18 10.08Q38.23 9.63 38.09 9.43Q37.95 9.23 37.69 9.23ZM48.96 18.30L48.96 18.30Q48.42 18.30 48.04 18.11Q47.65 17.91 47.41 17.58Q47.18 17.25 47.11 16.82Q47.04 16.38 47.16 15.89L47.16 15.89Q47.23 15.56 47.39 15.01Q47.55 14.46 47.73 13.82Q47.91 13.17 48.06 12.53Q48.21 11.88 48.26 11.36Q48.30 10.83 48.21 10.49Q48.12 10.15 47.81 10.15L47.81 10.15Q47.44 10.15 47.04 10.39Q46.64 10.64 46.23 11.06Q45.82 11.48 45.41 12.04Q45 12.59 44.60 13.17L44.60 13.17Q44.39 13.97 44.25 14.57Q44.11 15.16 44.00 15.64Q43.90 16.13 43.80 16.49Q43.71 16.85 43.64 17.18L43.64 17.18Q43.57 17.41 43.22 17.64Q42.87 17.86 42.47 18Q42.07 18.14 41.78 18.14Q41.48 18.14 41.53 17.93L41.53 17.93Q41.55 17.79 41.68 17.30Q41.81 16.80 41.99 16.14Q42.16 15.47 42.35 14.72Q42.54 13.97 42.70 13.29L42.70 13.29Q42.82 12.75 42.96 12.09L42.96 12.09Q43.08 11.53 43.25 10.78Q43.43 10.03 43.66 9.14L43.66 9.14Q43.83 9 44.00 8.92Q44.18 8.84 44.37 8.79L44.37 8.79Q44.55 8.72 44.77 8.70L44.77 8.70Q44.95 8.70 45.14 8.72L45.14 8.72Q45.30 8.74 45.48 8.80Q45.66 8.86 45.80 8.98L45.80 8.98Q45.73 9.14 45.63 9.43Q45.54 9.73 45.45 10.05L45.45 10.05Q45.35 10.43 45.21 10.83L45.21 10.83Q45.52 10.41 45.90 9.97Q46.29 9.54 46.75 9.19Q47.20 8.84 47.72 8.61Q48.23 8.39 48.77 8.39L48.77 8.39Q49.22 8.39 49.57 8.65Q49.92 8.91 50.12 9.36Q50.32 9.82 50.36 10.45Q50.39 11.09 50.18 11.84L50.18 11.84L49.92 12.87Q49.80 13.36 49.63 14.03Q49.45 14.70 49.20 15.49L49.20 15.49Q49.05 16.01 49.09 16.38Q49.13 16.76 49.55 16.76L49.55 16.76Q49.97 16.76 50.61 16.24Q51.26 15.73 51.91 15Q52.57 14.27 53.16 13.51Q53.74 12.75 54.05 12.28L54.05 12.28Q54.26 11.98 54.45 11.88Q54.63 11.79 54.74 11.86Q54.84 11.93 54.84 12.18Q54.84 12.42 54.66 12.80L54.66 12.80Q54.49 13.13 54.15 13.66Q53.81 14.20 53.34 14.81Q52.88 15.42 52.34 16.04Q51.80 16.66 51.21 17.17Q50.63 17.67 50.05 17.99Q49.48 18.30 48.96 18.30ZM64.85 22.08L64.85 22.08Q63.68 22.08 62.73 21.52Q61.78 20.95 61.11 19.97Q60.45 18.98 60.11 17.66Q59.77 16.34 59.81 14.84L59.81 14.84Q59.86 13.43 60.18 11.79Q60.49 10.15 61.08 8.50Q61.66 6.84 62.50 5.31Q63.33 3.77 64.41 2.60Q65.48 1.43 66.80 0.71Q68.11 0 69.68 0L69.68 0Q70.64 0 71.31 0.39Q71.98 0.77 72.39 1.41Q72.80 2.04 72.96 2.84Q73.13 3.63 73.10 4.45L73.10 4.45Q73.05 5.23 72.88 5.95Q72.70 6.68 72.39 7.25Q72.07 7.83 71.61 8.17Q71.16 8.51 70.57 8.51L70.57 8.51Q70.29 8.48 70.03 8.32L70.03 8.32Q69.80 8.18 69.55 7.90Q69.30 7.62 69.09 7.08L69.09 7.08Q69.73 6.82 70.09 6.18Q70.45 5.53 70.64 4.83L70.64 4.83Q70.85 4.03 70.92 3.05L70.92 3.05Q70.97 2.09 70.52 1.64Q70.08 1.20 69.52 1.20L69.52 1.20Q68.41 1.20 67.20 2.34Q65.98 3.49 64.93 5.45Q63.89 7.41 63.18 10.01Q62.46 12.61 62.34 15.52L62.34 15.52Q62.30 16.83 62.52 17.74Q62.74 18.66 63.15 19.24Q63.56 19.83 64.08 20.09Q64.59 20.34 65.11 20.34L65.11 20.34Q65.93 20.34 66.66 19.99Q67.38 19.64 67.98 19.13Q68.58 18.61 69.01 18.06Q69.45 17.51 69.68 17.09L69.68 17.09Q69.84 16.78 70.03 16.71Q70.22 16.64 70.36 16.75Q70.50 16.85 70.55 17.07Q70.59 17.30 70.45 17.60L70.45 17.60Q70.05 18.40 69.48 19.20Q68.91 19.99 68.19 20.64Q67.48 21.28 66.63 21.68Q65.79 22.08 64.85 22.08ZM75.89 18.09L75.89 18.09Q75 18.09 74.44 17.81Q73.88 17.53 73.56 17.12Q73.24 16.71 73.11 16.23Q72.98 15.75 72.98 15.35L72.98 15.35Q72.98 14.65 73.10 13.86Q73.22 13.08 73.38 12.41Q73.55 11.74 73.68 11.27Q73.80 10.80 73.85 10.69L73.85 10.69Q74.06 10.01 74.40 9.50Q74.74 9 75.35 8.81L75.35 8.81Q75.59 8.77 75.84 8.72L75.84 8.72Q76.05 8.70 76.28 8.70Q76.50 8.70 76.69 8.77L76.69 8.77Q76.05 10.38 75.69 11.46Q75.33 12.54 75.14 13.22L75.14 13.22Q74.93 13.99 74.88 14.46L74.88 14.46Q74.77 15.52 75.07 16.05Q75.38 16.59 76.31 16.59L76.31 16.59Q76.92 16.59 77.48 16.14Q78.05 15.68 78.52 14.95L78.52 14.95Q78.45 14.58 78.45 14.18L78.45 14.18Q78.45 13.43 78.57 12.71Q78.70 12 78.88 11.38Q79.05 10.76 79.25 10.27Q79.45 9.77 79.59 9.49L79.59 9.49Q79.85 8.93 80.06 8.80Q80.27 8.67 80.74 8.65L80.74 8.65Q80.93 8.63 81.06 8.64Q81.19 8.65 81.28 8.67L81.28 8.67Q81.56 8.74 81.56 8.95L81.56 8.95Q81.56 9.33 81.52 10.08Q81.47 10.83 81.23 11.63L81.23 11.63Q81.07 12.28 80.92 12.74Q80.77 13.20 80.63 13.51Q80.48 13.83 80.34 14.03Q80.20 14.23 80.09 14.39L80.09 14.39Q80.13 15.09 80.20 15.52Q80.27 15.94 80.38 16.16Q80.48 16.38 80.64 16.46Q80.79 16.55 80.98 16.55L80.98 16.55Q81.30 16.55 81.75 16.23Q82.20 15.91 82.68 15.43Q83.16 14.95 83.64 14.38Q84.12 13.80 84.52 13.29Q84.91 12.77 85.20 12.39Q85.48 12 85.55 11.91L85.55 11.91Q85.71 11.70 85.86 11.65Q86.02 11.60 86.11 11.68Q86.20 11.77 86.21 11.94Q86.23 12.12 86.11 12.33L86.11 12.33Q85.64 13.22 84.95 14.21Q84.26 15.21 83.47 16.05Q82.69 16.90 81.89 17.46Q81.09 18.02 80.39 18.02L80.39 18.02Q79.76 18.02 79.39 17.59Q79.03 17.16 78.77 16.34L78.77 16.34Q78.23 17.18 77.51 17.64Q76.78 18.09 75.89 18.09ZM89.39 3.91L89.39 3.91Q89.32 4.17 89.12 4.42Q88.92 4.66 88.68 4.82Q88.43 4.97 88.17 5.02Q87.91 5.06 87.75 4.92L87.75 4.92Q87.26 4.55 87.23 4.11Q87.21 3.68 87.45 3.29Q87.68 2.91 88.03 2.64Q88.38 2.37 88.64 2.32L88.64 2.32Q88.90 2.27 89.07 2.43Q89.25 2.58 89.34 2.82Q89.44 3.07 89.45 3.38Q89.46 3.68 89.39 3.91ZM86.16 8.91L86.16 8.91Q86.27 8.77 86.60 8.67Q86.93 8.58 87.28 8.52Q87.63 8.46 87.93 8.45Q88.22 8.44 88.27 8.46L88.27 8.46Q88.29 8.48 88.15 8.95Q88.01 9.42 87.80 10.05Q87.59 10.69 87.35 11.36Q87.12 12.02 87 12.45L87 12.45Q86.88 12.87 86.72 13.39Q86.55 13.92 86.43 14.43Q86.30 14.93 86.25 15.38Q86.20 15.82 86.32 16.05L86.32 16.05Q86.44 16.34 86.58 16.44Q86.72 16.55 86.88 16.55L86.88 16.55Q87.35 16.55 88.07 16.03Q88.78 15.52 89.52 14.80Q90.26 14.09 90.89 13.35Q91.52 12.61 91.83 12.16L91.83 12.16Q92.02 11.93 92.21 11.86Q92.41 11.79 92.54 11.88Q92.67 11.98 92.68 12.19Q92.70 12.40 92.53 12.68L92.53 12.68Q92.16 13.34 91.43 14.24Q90.70 15.14 89.88 15.97Q89.06 16.80 88.28 17.39Q87.49 17.98 87 18L87 18Q86.60 18.02 86.21 17.87Q85.83 17.72 85.51 17.45Q85.20 17.18 84.98 16.82Q84.77 16.45 84.75 16.05L84.75 16.05Q84.68 15.47 84.75 14.45Q84.82 13.43 85.01 12.36Q85.20 11.30 85.49 10.34Q85.78 9.38 86.16 8.91ZM94.13 16.92L94.13 16.92Q94.27 17.02 94.49 17.02Q94.71 17.02 94.93 16.92Q95.16 16.83 95.36 16.66Q95.55 16.50 95.65 16.24L95.65 16.24Q95.74 15.98 95.65 15.50Q95.55 15.02 95.36 14.47Q95.16 13.92 94.92 13.36Q94.69 12.80 94.52 12.33L94.52 12.33Q94.38 11.98 94.29 11.67L94.29 11.67Q94.20 11.41 94.11 11.17Q94.03 10.92 93.98 10.83L93.98 10.83Q93.87 11.02 93.57 11.44Q93.28 11.86 92.94 12.32Q92.60 12.77 92.30 13.16Q91.99 13.55 91.88 13.69L91.88 13.69Q91.69 13.90 91.51 13.93Q91.34 13.97 91.22 13.86Q91.10 13.76 91.09 13.56Q91.08 13.36 91.27 13.08L91.27 13.08Q91.41 12.89 91.69 12.48Q91.97 12.07 92.25 11.64Q92.53 11.20 92.77 10.86Q93 10.52 93.02 10.45L93.02 10.45Q93.07 10.27 92.89 9.96Q92.72 9.66 92.84 9.26L92.84 9.26Q92.93 8.93 93.26 8.50Q93.59 8.06 94.03 7.71Q94.48 7.36 94.95 7.18Q95.41 7.01 95.79 7.20L95.79 7.20Q96.09 7.38 96.28 7.61Q96.47 7.83 96.42 8.06L96.42 8.06Q96.38 8.18 96.28 8.37L96.28 8.37Q96.19 8.55 96 8.82Q95.81 9.09 95.46 9.52L95.46 9.52Q95.53 10.05 95.66 10.50Q95.79 10.95 95.91 11.27L95.91 11.27Q96.05 11.67 96.21 12L96.21 12Q96.42 12.42 96.66 12.87Q96.89 13.31 97.08 13.75Q97.27 14.18 97.38 14.55Q97.50 14.93 97.45 15.19L97.45 15.19Q97.38 15.59 97.04 16.15Q96.70 16.71 96.20 17.24Q95.70 17.77 95.05 18.14Q94.41 18.52 93.70 18.52L93.70 18.52Q93.21 18.52 92.75 18.21Q92.30 17.91 91.98 17.50Q91.66 17.09 91.51 16.69Q91.36 16.29 91.48 16.08L91.48 16.08Q91.62 15.80 91.73 15.63Q91.85 15.47 92.09 15.26L92.09 15.26Q92.18 15.19 92.32 15.09L92.32 15.09Q92.44 15.02 92.65 14.95Q92.86 14.88 93.14 14.79L93.14 14.79Q93.38 15.52 93.56 15.93Q93.75 16.34 93.87 16.57L93.87 16.57Q94.01 16.83 94.13 16.92ZM104.41 3.91L104.41 3.91Q104.34 4.17 104.14 4.42Q103.95 4.66 103.70 4.82Q103.45 4.97 103.20 5.02Q102.94 5.06 102.77 4.92L102.77 4.92Q102.28 4.55 102.26 4.11Q102.23 3.68 102.47 3.29Q102.70 2.91 103.05 2.64Q103.41 2.37 103.66 2.32L103.66 2.32Q103.92 2.27 104.10 2.43Q104.27 2.58 104.37 2.82Q104.46 3.07 104.47 3.38Q104.48 3.68 104.41 3.91ZM101.18 8.91L101.18 8.91Q101.30 8.77 101.63 8.67Q101.95 8.58 102.30 8.52Q102.66 8.46 102.95 8.45Q103.24 8.44 103.29 8.46L103.29 8.46Q103.31 8.48 103.17 8.95Q103.03 9.42 102.82 10.05Q102.61 10.69 102.38 11.36Q102.14 12.02 102.02 12.45L102.02 12.45Q101.91 12.87 101.74 13.39Q101.58 13.92 101.45 14.43Q101.32 14.93 101.27 15.38Q101.23 15.82 101.34 16.05L101.34 16.05Q101.46 16.34 101.60 16.44Q101.74 16.55 101.91 16.55L101.91 16.55Q102.38 16.55 103.09 16.03Q103.80 15.52 104.54 14.80Q105.28 14.09 105.91 13.35Q106.55 12.61 106.85 12.16L106.85 12.16Q107.04 11.93 107.24 11.86Q107.44 11.79 107.57 11.88Q107.70 11.98 107.71 12.19Q107.72 12.40 107.55 12.68L107.55 12.68Q107.18 13.34 106.45 14.24Q105.73 15.14 104.91 15.97Q104.09 16.80 103.30 17.39Q102.52 17.98 102.02 18L102.02 18Q101.63 18.02 101.24 17.87Q100.85 17.72 100.54 17.45Q100.22 17.18 100.01 16.82Q99.80 16.45 99.77 16.05L99.77 16.05Q99.70 15.47 99.77 14.45Q99.84 13.43 100.03 12.36Q100.22 11.30 100.51 10.34Q100.80 9.38 101.18 8.91ZM112.80 18.30L112.80 18.30Q112.27 18.30 111.88 18.11Q111.49 17.91 111.26 17.58Q111.02 17.25 110.95 16.82Q110.88 16.38 111 15.89L111 15.89Q111.07 15.56 111.23 15.01Q111.40 14.46 111.57 13.82Q111.75 13.17 111.90 12.53Q112.05 11.88 112.10 11.36Q112.15 10.83 112.05 10.49Q111.96 10.15 111.66 10.15L111.66 10.15Q111.28 10.15 110.88 10.39Q110.48 10.64 110.07 11.06Q109.66 11.48 109.25 12.04Q108.84 12.59 108.45 13.17L108.45 13.17Q108.23 13.97 108.09 14.57Q107.95 15.16 107.85 15.64Q107.74 16.13 107.65 16.49Q107.55 16.85 107.48 17.18L107.48 17.18Q107.41 17.41 107.06 17.64Q106.71 17.86 106.31 18Q105.91 18.14 105.62 18.14Q105.33 18.14 105.38 17.93L105.38 17.93Q105.40 17.79 105.53 17.30Q105.66 16.80 105.83 16.14Q106.01 15.47 106.20 14.72Q106.38 13.97 106.55 13.29L106.55 13.29Q106.66 12.75 106.80 12.09L106.80 12.09Q106.92 11.53 107.10 10.78Q107.27 10.03 107.51 9.14L107.51 9.14Q107.67 9 107.85 8.92Q108.02 8.84 108.21 8.79L108.21 8.79Q108.40 8.72 108.61 8.70L108.61 8.70Q108.80 8.70 108.98 8.72L108.98 8.72Q109.15 8.74 109.32 8.80Q109.50 8.86 109.64 8.98L109.64 8.98Q109.57 9.14 109.48 9.43Q109.38 9.73 109.29 10.05L109.29 10.05Q109.20 10.43 109.05 10.83L109.05 10.83Q109.36 10.41 109.75 9.97Q110.13 9.54 110.59 9.19Q111.05 8.84 111.56 8.61Q112.08 8.39 112.62 8.39L112.62 8.39Q113.06 8.39 113.41 8.65Q113.77 8.91 113.96 9.36Q114.16 9.82 114.20 10.45Q114.23 11.09 114.02 11.84L114.02 11.84L113.77 12.87Q113.65 13.36 113.47 14.03Q113.30 14.70 113.04 15.49L113.04 15.49Q112.90 16.01 112.93 16.38Q112.97 16.76 113.39 16.76L113.39 16.76Q113.81 16.76 114.46 16.24Q115.10 15.73 115.76 15Q116.41 14.27 117 13.51Q117.59 12.75 117.89 12.28L117.89 12.28Q118.10 11.98 118.29 11.88Q118.48 11.79 118.58 11.86Q118.69 11.93 118.69 12.18Q118.69 12.42 118.50 12.80L118.50 12.80Q118.34 13.13 118.00 13.66Q117.66 14.20 117.19 14.81Q116.72 15.42 116.18 16.04Q115.64 16.66 115.05 17.17Q114.47 17.67 113.89 17.99Q113.32 18.30 112.80 18.30ZM127.55 12.84L127.55 12.84Q126.84 13.88 125.95 14.85Q125.06 15.82 124.07 16.58Q123.07 17.34 122.03 17.81Q120.98 18.28 120 18.28L120 18.28Q119.48 18.28 118.89 18.04Q118.29 17.79 117.80 17.27Q117.30 16.76 117.01 15.94Q116.72 15.12 116.84 13.95L116.84 13.95Q116.93 12.98 117.43 11.92Q117.94 10.85 118.68 9.96Q119.41 9.07 120.34 8.48Q121.27 7.90 122.20 7.90L122.20 7.90Q123.09 7.90 123.49 8.34Q123.89 8.79 123.84 9.45L123.84 9.45Q123.77 10.17 123.43 10.78Q123.09 11.39 122.63 11.88Q122.16 12.38 121.63 12.77Q121.10 13.17 120.63 13.50L120.63 13.50Q120.12 13.85 119.65 14.17Q119.18 14.48 118.83 14.74L118.83 14.74Q118.85 15.33 119.04 15.73Q119.23 16.13 119.51 16.37Q119.79 16.62 120.15 16.72Q120.52 16.83 120.89 16.83L120.89 16.83Q121.69 16.83 122.55 16.32Q123.42 15.82 124.25 15.11Q125.09 14.39 125.80 13.62Q126.52 12.84 126.98 12.28L126.98 12.28Q127.15 12.09 127.32 12.06Q127.50 12.02 127.61 12.11Q127.71 12.19 127.71 12.39Q127.71 12.59 127.55 12.84ZM121.55 9.23L121.55 9.23Q121.27 9.23 120.88 9.52Q120.49 9.80 120.12 10.32Q119.74 10.85 119.41 11.61Q119.09 12.38 118.92 13.36L118.92 13.36Q119.20 13.15 119.53 12.93Q119.86 12.70 120.19 12.45L120.19 12.45Q121.20 11.67 121.59 11.09Q121.99 10.50 122.04 10.08L122.04 10.08Q122.09 9.63 121.95 9.43Q121.80 9.23 121.55 9.23Z" transform="translate(0, 47)"></path></svg>